<svg width="84" height="30" viewBox="0 0 84 30" fill="none" xmlns="http://www.w3.org/2000/svg">
<path d="M43.6061 14.166C42.7861 13.849 41.7841 13.585 40.6011 13.373H40.5761C39.4261 13.178 38.5641 12.999 37.9891 12.836C37.4141 12.674 36.9621 12.454 36.6321 12.177C36.3021 11.901 36.1381 11.519 36.1381 11.031C36.1381 10.315 36.4181 9.77095 36.9751 9.39695C37.5331 9.02295 38.2681 8.83595 39.1811 8.83595C40.1781 8.83595 40.9851 9.07895 41.6031 9.56795C42.1571 10.006 42.4961 10.563 42.6211 11.237C42.6474 11.3731 42.7664 11.4716 42.9051 11.472L45.7111 11.492C45.8831 11.494 46.0211 11.352 46.0041 11.187C45.9157 10.2997 45.596 9.45108 45.0771 8.72595C44.4931 7.90495 43.6901 7.26595 42.6671 6.81095C41.6451 6.35495 40.4831 6.12695 39.1811 6.12695C37.9471 6.12695 36.8361 6.34695 35.8471 6.78695C34.8571 7.22595 34.0881 7.83495 33.5391 8.61595C32.9931 9.38527 32.7047 10.3077 32.7151 11.251C32.7151 12.324 32.9601 13.186 33.4501 13.836C33.9478 14.4925 34.6136 15.0024 35.3771 15.312C36.1711 15.646 37.1271 15.91 38.2421 16.105L38.3691 16.129C39.5511 16.341 40.4351 16.529 41.0191 16.691C41.6021 16.854 42.0621 17.081 42.4011 17.374C42.7381 17.666 42.9071 18.065 42.9071 18.569C42.9071 19.285 42.6031 19.846 41.9951 20.252C41.3861 20.659 40.6001 20.862 39.6361 20.862C38.4861 20.862 37.5571 20.582 36.8471 20.02C36.2011 19.51 35.8211 18.855 35.7071 18.054C35.6858 17.9134 35.5652 17.8093 35.4231 17.809L32.6201 17.769C32.4501 17.766 32.3121 17.904 32.3251 18.068C32.4051 19.052 32.7251 19.938 33.2851 20.728C33.9021 21.598 34.7511 22.281 35.8331 22.778C36.9141 23.274 38.1571 23.521 39.5601 23.521C40.8621 23.521 42.0281 23.294 43.0601 22.838C44.0901 22.383 44.8981 21.753 45.4811 20.948C46.059 20.1597 46.366 19.2054 46.3561 18.228C46.3561 17.154 46.1021 16.288 45.5961 15.629C45.0891 14.97 44.4251 14.484 43.6061 14.166ZM60.8371 20.741H60.3991C60.1451 20.741 59.9461 20.676 59.8031 20.545C59.6591 20.415 59.5871 20.204 59.5871 19.911V15.251C59.5871 13.771 59.0971 12.645 58.1171 11.873C57.1371 11.101 55.9821 10.707 54.1731 10.707C52.4651 10.707 51.1311 11.064 50.0831 11.763C49.1281 12.4 48.5531 13.273 48.3551 14.384C48.3251 14.557 48.4601 14.714 48.6421 14.714H51.2191C51.3481 14.714 51.4641 14.634 51.4981 14.514C51.6151 14.102 51.8751 13.767 52.2761 13.507C52.7411 13.207 53.2931 13.056 54.0201 13.056C55.3911 13.056 56.3661 13.869 56.3661 15.081V15.459C56.3661 15.614 56.2361 15.739 56.0761 15.739H53.7411C51.8481 15.739 50.4111 16.097 49.4311 16.813C48.4511 17.529 47.9601 18.545 47.9601 19.863C47.9601 21.001 48.4081 21.896 49.3041 22.546C49.9761 23.033 50.7801 23.315 51.6071 23.438C52.2391 23.533 52.8881 23.567 53.5221 23.469C54.1861 23.367 54.7251 23.104 55.2641 22.729C55.7491 22.392 56.1541 21.96 56.5221 21.434C56.7021 21.137 57.1751 21.256 57.1751 21.6V22.013C57.1741 22.765 57.8071 23.375 58.5881 23.375H60.8371C60.9943 23.3772 61.1238 23.2521 61.1271 23.095V21.02C61.1271 20.866 60.9971 20.741 60.8371 20.741ZM56.3671 18.228C56.3671 18.83 56.2361 19.354 55.9741 19.801C55.4241 20.739 54.4421 21.228 53.3361 21.228C52.6941 21.228 52.1781 21.082 51.7891 20.79C51.4117 20.5207 51.1931 20.0813 51.2061 19.618C51.2061 19.066 51.4221 18.638 51.8531 18.338C52.2831 18.038 52.8961 17.887 53.6911 17.887H56.0761C56.2361 17.887 56.3661 18.012 56.3661 18.167L56.3671 18.228ZM70.2311 6.30595H66.8791C65.1091 6.30595 63.6761 7.68595 63.6761 9.38795V10.742C63.6761 10.897 63.5461 11.022 63.3851 11.022H61.4691C61.3115 11.0192 61.1814 11.1444 61.1781 11.302V13.4C61.1781 13.555 61.3081 13.68 61.4681 13.68H63.3841C63.5441 13.68 63.6741 13.806 63.6741 13.96V23.095C63.6741 23.25 63.8041 23.375 63.9661 23.375H66.5791C66.7391 23.375 66.8691 23.25 66.8691 23.095V13.961C66.8691 13.806 67.0001 13.681 67.1611 13.681H70.2061C70.3661 13.681 70.4961 13.555 70.4961 13.401V11.301C70.4961 11.147 70.3661 11.021 70.2061 11.021H67.1611C67.0035 11.0238 66.8733 10.8985 66.8701 10.741V9.52495C66.8701 9.21495 67.1301 8.96495 67.4521 8.96495H70.2311C70.3883 8.96715 70.5178 8.84213 70.5211 8.68495V6.58595C70.5211 6.43095 70.3911 6.30595 70.2311 6.30595ZM83.0321 13.544C82.4724 12.6396 81.668 11.9122 80.7121 11.446C79.7311 10.958 78.5981 10.707 77.3141 10.707C76.0301 10.707 74.9211 10.979 73.9411 11.507C72.9787 12.0176 72.1858 12.7973 71.6591 13.751C71.1191 14.719 70.8481 15.853 70.8481 17.155C70.8481 18.455 71.1271 19.541 71.6841 20.509C72.2431 21.477 73.0411 22.221 74.0801 22.741C75.1201 23.261 76.3411 23.521 77.7451 23.521C78.8261 23.521 79.7951 23.331 80.6481 22.949C81.5011 22.567 82.1901 22.042 82.7141 21.375C83.1528 20.8244 83.4664 20.1849 83.6331 19.501C83.6734 19.3207 83.5337 19.1505 83.3491 19.155H80.7251C80.6014 19.1541 80.4907 19.2315 80.4491 19.348C80.2732 19.8627 79.9277 20.3024 79.4691 20.595C78.9441 20.936 78.2941 21.107 77.5161 21.107C76.8741 21.107 76.3121 20.977 75.8301 20.717C75.3557 20.4636 74.9611 20.0834 74.6901 19.619C74.5801 19.433 74.4901 19.236 74.4171 19.033C74.3411 18.815 74.2842 18.5908 74.2471 18.363C74.2339 18.2832 74.2222 18.2032 74.2121 18.123C74.1921 17.958 74.3281 17.813 74.5021 17.813H83.5531C83.6978 17.8165 83.8224 17.7113 83.8431 17.568C83.8551 17.465 83.8631 17.36 83.8681 17.252C83.8761 17.057 83.8801 16.878 83.8801 16.716C83.8801 15.513 83.5971 14.456 83.0311 13.545L83.0321 13.544ZM80.3121 15.691H74.6421C74.4571 15.691 74.3161 15.525 74.3571 15.351C74.4481 14.967 74.6051 14.622 74.8281 14.312C75.1151 13.914 75.4881 13.609 75.9441 13.398C76.4134 13.1835 76.9241 13.0749 77.4401 13.08C78.3191 13.08 79.0461 13.308 79.6201 13.763C80.1141 14.154 80.4391 14.683 80.5961 15.349C80.6371 15.524 80.4981 15.691 80.3121 15.691Z" fill="black"/>
<path fill-rule="evenodd" clip-rule="evenodd" d="M4.7822 0V5.13645H0V24.6549H4.7822V29.7914H27.7368V0H4.7822ZM22.6003 5.13606H10.2729V10.2725H5.13643V19.5181H10.2729V24.6545H22.6003V19.5181H10.2729V10.2725H22.6003V5.13606Z" fill="black"/>
</svg>
